<svg width="38" height="39" viewBox="0 0 38 39" fill="none" xmlns="http://www.w3.org/2000/svg">
<path fill-rule="evenodd" clip-rule="evenodd" d="M6.59823 17.0197C6.61148 17.0645 6.65218 17.0954 6.69892 17.0962C10.2392 17.1536 14.0809 17.1542 17.6798 17.1542C17.7389 17.1542 17.7867 17.2019 17.7869 17.261C17.8058 24.458 17.7676 32.0716 17.7861 38.7931C17.7863 38.8743 17.6996 38.9257 17.6283 38.8869C11.4993 35.5591 6.37844 30.636 3.41059 24.2956C3.37743 24.2248 3.4292 24.1435 3.50744 24.1435C5.4294 24.1428 7.36814 24.1311 9.2708 24.1432C9.30662 24.1434 9.33996 24.1615 9.35971 24.1914C10.1736 25.4226 11.0177 26.5199 11.9368 27.6088C11.9824 27.6629 12.1017 27.79 12.2045 27.8913C12.2652 27.9511 12.3542 27.9107 12.3559 27.8255C12.392 26.0271 12.4104 24.1952 12.4111 22.38C12.4111 22.3208 12.3632 22.2728 12.3039 22.2728C9.13151 22.2726 5.84969 22.2647 2.67801 22.2645C2.63307 22.2645 2.59292 22.2364 2.57747 22.1942C0.673773 16.9944 -0.175395 11.6293 0.0300045 6.09896C0.031247 6.0655 0.0481598 6.03445 0.0755822 6.01525C5.31576 2.34597 11.2798 0.398774 17.673 0.00679999C17.7346 0.00302543 17.7866 0.0520204 17.7866 0.1137C17.7866 1.85799 17.7866 3.5666 17.7866 5.27452C17.7866 5.33125 17.7425 5.37814 17.6859 5.38173C13.4398 5.65108 9.16131 6.83714 5.52274 8.98219C5.49068 9.00109 5.47081 9.03526 5.47028 9.07247C5.43226 11.7212 5.8472 14.4784 6.59823 17.0197Z" fill="#44087D"/>
<path fill-rule="evenodd" clip-rule="evenodd" d="M20.0801 0.127418C20.0804 0.0647373 20.1344 0.0156838 20.1968 0.0213103C26.473 0.586973 32.2214 2.61749 37.442 6.11287C37.4698 6.13148 37.4874 6.16209 37.4893 6.19548C37.6661 9.20222 37.4775 12.2022 36.9141 15.1685C36.9046 15.2187 36.8607 15.2551 36.8096 15.2555C35.0089 15.2681 33.3434 15.2554 31.6491 15.2548C31.5899 15.2548 31.5419 15.2071 31.5419 15.1479C31.5436 13.3079 31.5875 11.0289 31.5433 9.14855C31.5424 9.11125 31.5221 9.0773 31.4898 9.05865C29.4544 7.88362 27.5194 7.02274 25.2761 6.39928C25.2074 6.38019 25.1397 6.43256 25.1406 6.50384C25.2353 13.6987 25.1211 20.7987 25.2158 27.9935C25.2167 28.0661 25.2877 28.1154 25.3528 28.0833C25.4553 28.0329 25.5655 27.9635 25.6188 27.8993C26.9143 26.3385 27.9691 24.6245 28.7834 22.7568C28.8119 22.6915 28.864 22.5414 28.9003 22.4175C28.9193 22.3524 28.8696 22.2904 28.8018 22.2904C28.2948 22.2904 27.8247 22.2904 27.3013 22.2904C27.2421 22.2904 27.194 22.2423 27.194 22.183C27.194 20.4823 27.194 18.9601 27.194 17.2594C27.194 17.2002 27.242 17.1521 27.3013 17.1521C30.3048 17.1521 33.3271 17.1521 36.3682 17.1521C36.4369 17.1521 36.4878 17.2164 36.4724 17.2834C34.2709 26.8609 28.6884 34.1003 20.1969 38.8823C20.1262 38.9221 20.0384 38.872 20.0372 38.791C19.8444 25.9343 20.0143 13.0498 20.0801 0.127418Z" fill="#44087D"/>
</svg>
